<svg width="15" height="14" viewBox="0 0 15 14" fill="none" xmlns="http://www.w3.org/2000/svg">
<path d="M10.4017 8.24277C10.2358 8.15755 9.40943 7.75274 9.25573 7.69795C9.10202 7.64012 8.9894 7.61273 8.87831 7.78318C8.76569 7.9521 8.44611 8.328 8.34566 8.44214C8.24827 8.55475 8.14935 8.56845 7.98346 8.48475C6.99731 7.99167 6.35053 7.60512 5.7007 6.48961C5.52873 6.19285 5.87267 6.21416 6.19378 5.57346C6.24856 5.46085 6.22117 5.36497 6.17856 5.27975C6.13595 5.19452 5.80114 4.36968 5.66113 4.03336C5.52569 3.70616 5.38568 3.75182 5.28372 3.74573C5.18632 3.73964 5.07522 3.73964 4.96261 3.73964C4.84999 3.73964 4.66889 3.78225 4.51519 3.94813C4.36148 4.11706 3.92775 4.52339 3.92775 5.34823C3.92775 6.17307 4.52888 6.97204 4.61106 7.08465C4.69629 7.19727 5.79353 8.88956 7.47821 9.61852C8.5435 10.0781 8.96049 10.1177 9.49313 10.0385C9.81728 9.98985 10.4854 9.63374 10.6239 9.23958C10.7623 8.84695 10.7623 8.51062 10.7213 8.44061C10.6802 8.36604 10.5676 8.32343 10.4017 8.24277Z" fill="#F4F4F4"/>
<path d="M13.6234 4.26316C13.2795 3.44593 12.7864 2.7124 12.1579 2.08236C11.5294 1.45383 10.7958 0.959235 9.97708 0.616821C9.14007 0.265275 8.25131 0.0872192 7.33516 0.0872192H7.30472C6.38249 0.0917848 5.48917 0.274406 4.64911 0.633561C3.83797 0.980541 3.11053 1.47362 2.48809 2.10214C1.86566 2.73066 1.37715 3.46114 1.0393 4.27533C0.689274 5.11843 0.51274 6.0148 0.517306 6.93703C0.521871 7.99319 0.774497 9.04174 1.24779 9.9792V12.2924C1.24779 12.6789 1.56129 12.9924 1.94784 12.9924H4.26256C5.20002 13.4657 6.24856 13.7184 7.30472 13.7229H7.33668C8.24827 13.7229 9.13246 13.5464 9.9649 13.2009C10.7791 12.8616 11.5111 12.3746 12.1381 11.7521C12.7666 11.1297 13.2612 10.4023 13.6067 9.59113C13.9658 8.75107 14.1484 7.85775 14.153 6.93551C14.1576 6.00871 13.978 5.1093 13.6234 4.26316ZM11.3239 10.9288C10.2571 11.985 8.84178 12.5663 7.33516 12.5663H7.30929C6.39162 12.5618 5.48003 12.3335 4.67498 11.9043L4.54714 11.8358H2.40439V9.69309L2.33591 9.56526C1.90675 8.7602 1.67847 7.84862 1.67391 6.93095C1.66782 5.41367 2.24764 3.98922 3.31141 2.91632C4.37365 1.84343 5.79353 1.24991 7.31081 1.24382H7.33668C8.0976 1.24382 8.8357 1.39144 9.53118 1.68363C10.2099 1.96822 10.8187 2.37759 11.3422 2.90111C11.8642 3.4231 12.2751 4.03336 12.5596 4.7121C12.8549 5.41519 13.0025 6.16089 12.9995 6.93095C12.9903 8.4467 12.3953 9.86658 11.3239 10.9288Z" fill="#F4F4F4"/>
</svg>
